Coordinates
version=1
nRows=14
nColumns=32
inDegrees=yes

Units are S.I. units (second, meters, Newtons, ...)
If the header above contains a line with 'inDegrees', this indicates whether rotational values are in degrees (yes) or radians (no).

endheader
time	pelvis_tilt	pelvis_list	pelvis_rotation	pelvis_tx	pelvis_ty	pelvis_tz	hip_flexion_r	hip_adduction_r	hip_rotation_r	knee_angle_r	knee_adduction_r	med_cond_adduction_r	lat_cond_adduction_r	patella_r_constrained_knee_angle	hip_flexion_l	hip_adduction_l	hip_rotation_l	knee_angle_l	knee_adduction_l	med_cond_adduction_l	lat_cond_adduction_l	patella_l_constrained_knee_angle	lumbar_extension	lumbar_bending	lumbar_rotation	ankle_angle_r	subtalar_angle_r	mtp_angle_r	ankle_angle_l	subtalar_angle_l	mtp_angle_l
      2.14500000	     -9.44076028	      3.76786920	     -9.13055155	     -0.16028134	      0.70055701	     -0.40814922	     36.58957272	     -3.93617655	      1.22724991	    -64.45573369	      1.83839468	     -0.00000000	     -0.00000000	     -1.12496477	     25.56180500	      3.57847701	     -4.22205205	    -28.20905146	     -3.08683437	     -0.00000000	     -0.00000000	     -0.49234083	     -5.49664754	     -3.46778508	     -1.65925964	     -2.98619756	      3.65946101	     -0.00000000	      7.93143959	      5.80930829	     -0.00000000
      2.15000000	     -9.53048132	      3.55746084	     -8.88069282	     -0.15356912	      0.70160655	     -0.40765284	     36.99179081	     -3.72954257	      1.69471240	    -62.82929910	      2.63722410	     -0.00000000	     -0.00000000	     -1.09657814	     24.64031183	      3.46919724	     -4.29877875	    -27.47802569	     -3.24769874	      0.00000000	      0.00000000	     -0.47958202	     -5.34817528	     -3.29404792	     -1.99159569	     -2.69329397	      3.36264810	     -0.00000000	      8.21626803	      6.44406966	      0.00000000
      2.15500000	     -9.62022370	      3.35314254	     -8.58675249	     -0.14684767	      0.70255027	     -0.40713430	     37.35616344	     -3.56684969	      2.14079651	    -61.16444252	      3.44230232	     -0.00000000	     -0.00000000	     -1.06752091	     23.73582448	      3.36277664	     -4.30174520	    -26.76668464	     -3.37147305	     -0.00000000	     -0.00000000	     -0.46716678	     -5.20357247	     -3.14021658	     -2.32788187	     -2.33639278	      2.86612793	      0.00000000	      8.09391720	      7.92162881	      0.00000000
      2.16000000	     -9.72082022	      3.16468263	     -8.27050968	     -0.14013643	      0.70337011	     -0.40663355	     37.71604135	     -3.45237947	      2.51995092	    -59.46789277	      4.18198664	     -0.00000000	     -0.00000000	     -1.03791053	     22.84289209	      3.26265873	     -4.19354167	    -26.04094655	     -3.44114384	      0.00000000	      0.00000000	     -0.45450026	     -5.06765824	     -3.03064750	     -2.68830374	     -2.12624718	      2.76791753	      0.00000000	      8.66614821	      8.09305092	      0.00000000
      2.16500000	     -9.83786029	      3.00547596	     -7.91696076	     -0.13339219	      0.70404694	     -0.40612174	     38.06125905	     -3.38098051	      2.85491131	    -57.75088147	      4.86006802	     -0.00000000	     -0.00000000	     -1.00794303	     21.97397727	      3.19668451	     -3.96820365	    -25.33965726	     -3.45632229	     -0.00000000	     -0.00000000	     -0.44226045	     -4.81203865	     -2.97703630	     -3.09150143	     -1.88336380	      2.62632677	      0.00000000	      9.10594641	      8.19319659	      0.00000000
      2.17000000	     -9.86071237	      2.92529302	     -7.56599756	     -0.12667190	      0.70466531	     -0.40562257	     38.31280402	     -3.44275151	      3.19398828	    -56.04126295	      5.49586040	      0.00000000	      0.00000000	     -0.97810456	     21.01126302	      3.25191119	     -3.85041254	    -24.59091883	     -3.58563165	      0.00000000	      0.00000000	     -0.42919250	     -4.79898510	     -3.06475828	     -3.50581940	     -1.63833485	      2.42186545	      0.00000000	      9.35879035	      8.39134854	     -0.00000000
      2.17500000	     -9.90783774	      2.87681018	     -7.17189113	     -0.11995756	      0.70510340	     -0.40512851	     38.59117948	     -3.56360991	      3.39467908	    -54.34900029	      6.01387804	      0.00000000	      0.00000000	     -0.94856900	     20.09855965	      3.33609131	     -3.65518857	    -23.87895597	     -3.67214425	      0.00000000	      0.00000000	     -0.41676640	     -4.72395902	     -3.22627372	     -3.97248108	     -1.40979803	      2.07563579	      0.00000000	      9.39314586	      8.48503198	      0.00000000
      2.18000000	     -9.99863574	      2.80445993	     -6.75856153	     -0.11322552	      0.70541595	     -0.40463588	     38.84423817	     -3.62793670	      3.54645227	    -52.54977133	      6.40062769	      0.00000000	      0.00000000	     -0.91716653	     19.23097264	      3.39068221	     -3.36961723	    -23.17166139	     -3.74628867	      0.00000000	      0.00000000	     -0.40442178	     -4.54519766	     -3.32357211	     -4.36012785	     -1.29825393	      1.43219699	     -0.00000000	      9.01389980	      8.81568228	     -0.00000000
      2.18500000	    -10.02858865	      2.75166192	     -6.32098202	     -0.10654957	      0.70557719	     -0.40410683	     39.06239874	     -3.73673749	      3.55329581	    -50.84613072	      6.65389507	      0.00000000	      0.00000000	     -0.88743239	     18.34025891	      3.43437672	     -3.03976364	    -22.58056678	     -3.72794829	     -0.00000000	     -0.00000000	     -0.39410524	     -4.47267986	     -3.54358187	     -4.85687498	     -1.06911790	      1.32119152	      0.00000000	      9.55284935	      8.63933198	     -0.00000000
      2.19000000	    -10.14678993	      2.71797437	     -5.82585899	     -0.09982830	      0.70556177	     -0.40367269	     39.30172391	     -3.89152506	      3.50076670	    -49.03464961	      6.83700000	      0.00000000	     -0.00000000	     -0.85581608	     17.54275960	      3.56106207	     -2.60479558	    -21.94957724	     -3.81012448	      0.00000000	      0.00000000	     -0.38309239	     -4.31740502	     -3.68953189	     -5.33023912	     -0.83512432	      1.26477007	     -0.00000000	      9.95540901	      8.61163179	      0.00000000
      2.19500000	    -10.20572865	      2.71606218	     -5.35051143	     -0.09314129	      0.70543200	     -0.40320991	     39.49664109	     -4.06946357	      3.36323342	    -47.25494498	      6.89194734	      0.00000000	     -0.00000000	     -0.82475438	     16.71468561	      3.70881307	     -2.27160876	    -21.39309421	     -3.90576044	      0.00000000	      0.00000000	     -0.37337993	     -4.28433293	     -3.92029293	     -5.76189017	     -0.62335365	      1.27527058	      0.00000000	     10.17485478	      8.78979707	     -0.00000000
      2.20000000	    -10.29017711	      2.70228957	     -4.84401942	     -0.08645458	      0.70514562	     -0.40274141	     39.67967543	     -4.22097402	      3.15845124	    -45.43511878	      6.81872568	      0.00000000	      0.00000000	     -0.79299242	     15.93724740	      3.83247622	     -1.85739128	    -20.90275400	     -3.97629261	     -0.00000000	     -0.00000000	     -0.36482188	     -4.16607069	     -4.13586498	     -6.24208688	     -0.44009528	      1.34025348	      0.00000000	     10.35174742	      8.89431269	      0.00000000
      2.20500000	    -10.39297349	      2.67584637	     -4.33299405	     -0.07984576	      0.70474119	     -0.40223994	     39.85080306	     -4.31819623	      2.89453822	    -43.55238001	      6.60294559	      0.00000000	      0.00000000	     -0.76013243	     15.20968989	      3.93100882	     -1.37600360	    -20.47446790	     -4.02768073	      0.00000000	      0.00000000	     -0.35734688	     -4.01830162	     -4.35555075	     -6.72544819	     -0.31122514	      1.46925836	      0.00000000	     10.41441047	      8.94136880	     -0.00000000
      2.21000000	    -10.50373627	      2.65251168	     -3.77431216	     -0.07322874	      0.70420246	     -0.40178422	     39.99446708	     -4.43475539	      2.51841998	    -41.61880652	      6.26381315	      0.00000000	      0.00000000	     -0.72638520	     14.51249771	      4.03601377	     -0.82158805	    -20.10632551	     -4.07542594	     -0.00000000	     -0.00000000	     -0.35092158	     -3.91632174	     -4.59227489	     -7.25822076	     -0.03226549	      1.64840084	      0.00000000	     10.91062124	      8.92573569	      0.00000000
